# xmcd
#
# Track frame offsets: 
#        183
#        12940
#        40023
#        55220
#        81218
#        94653
#        110340
#
# Disc length: 2021 seconds
#
# Revision: 3
# Processed by: cddbd v1.5.2PL0 Copyright (c) Steve Scherf et al.
# Submitted via: ExactAudioCopyFreeDBPlugin 1.0
#
DISCID=4a07e307
DTITLE=Savoy Brown - Hellbound Train
DYEAR=1972
DGENRE=Rock
TTITLE0=Doin' Fine
TTITLE1=Lost and Lonely Child
TTITLE2=I'll make Everything Alright
TTITLE3=Troubled by These Days and Times
TTITLE4=If I Could See an End
TTITLE5=It'll Make You Happy
TTITLE6=Hellbound Train
EXTD=
EXTT0=
EXTT1=
EXTT2=
EXTT3=
EXTT4=
EXTT5=
EXTT6=
PLAYORDER=
